<?xml version="1.0" encoding="utf-8"?>
<!-- Generator: Adobe Illustrator 28.3.0, SVG Export Plug-In . SVG Version: 6.00 Build 0)  -->
<svg version="1.1" id="Layer_1" xmlns="http://www.w3.org/2000/svg" xmlns:xlink="http://www.w3.org/1999/xlink" x="0px" y="0px"
	 viewBox="0 0 2915 500" style="enable-background:new 0 0 2915 500;" xml:space="preserve">
<style type="text/css">
	.st0{display:none;}
	.st1{fill:#6DB33F;}
	.st2{fill:#FFFFFF;}
</style>
<g id="_x35_kcxRB.tif" class="st0">
</g>
<circle class="st1" cx="248.8" cy="243.3" r="54.3"/>
<path class="st1" d="M248.5,397.5c-63.2,0-122.7-15.8-167.5-44.5c-45.5-29-70.5-67.9-70.5-109.4s25-80.3,70.5-109.4
	c44.8-28.7,104.3-44.5,167.5-44.5s122.7,15.8,167.5,44.5c45.4,29.1,70.5,67.9,70.5,109.4S461.5,324,416,353
	C371.2,381.7,311.7,397.5,248.5,397.5z M248.5,98.7c-126.3,0-229,65-229,144.9s102.7,144.9,229,144.9s229-65,229-144.9
	S374.8,98.7,248.5,98.7z"/>
<path class="st1" d="M183.8,463.8c-19.7,0-38.1-4.7-54.3-14.1C93.6,429,72.4,387.9,70,334c-2.4-53.1,13.7-112.6,45.3-167.3l3.9,2.2
	l-3.9-2.2c31.6-54.7,75-98.4,122.3-122.9c47.9-24.8,94.1-27.1,130-6.3c35.9,20.7,57.1,61.8,59.5,115.7
	c2.4,53.1-13.7,112.6-45.3,167.3s-75,98.4-122.3,122.9C233.3,457,207.6,463.8,183.8,463.8z M313.1,32.4c-22.3,0-46.6,6.5-71.5,19.4
	c-45.7,23.7-87.9,66.1-118.6,119.4c-30.8,53.3-46.4,111-44.1,162.4c2.3,50.7,21.9,89.2,55,108.3c33.2,19.2,76.3,16.8,121.3-6.5
	c45.7-23.7,87.9-66.1,118.6-119.4c30.8-53.3,46.4-111,44.1-162.4c-2.3-50.7-21.9-89.2-55-108.3C348.1,36.7,331.3,32.4,313.1,32.4z"
	/>
<path class="st1" d="M313.2,463.8c-23.8,0-49.4-6.8-75.6-20.4c-47.2-24.5-90.7-68.1-122.3-122.9C83.6,265.8,67.6,206.4,70,153.2
	c2.5-53.9,23.6-95,59.5-115.7s82.1-18.5,130,6.3c47.2,24.5,90.7,68.1,122.3,122.9c31.6,54.7,47.7,114.2,45.3,167.3
	c-2.5,53.9-23.6,95-59.5,115.7C351.2,459.1,332.8,463.8,313.2,463.8z M183.9,32.4c-18.1,0-35,4.3-49.9,12.9
	c-33.2,19.2-52.7,57.6-55,108.3c-2.4,51.5,13.3,109.2,44,162.4c30.8,53.3,72.9,95.7,118.6,119.4c45.1,23.4,88.2,25.7,121.3,6.5
	c33.2-19.2,52.7-57.6,55-108.3c2.3-51.5-13.3-109.1-44.1-162.4S300.9,75.5,255.2,51.8C230.5,38.9,206.2,32.4,183.9,32.4z"/>
<g>
	<path class="st2" d="M675.5,150.3H743c11.3,0,21.6,2.3,31,6.8c9.3,4.5,16.7,10.8,22.1,19c5.4,8.1,8.1,17.3,8.1,27.4
		c0,10.2-2.7,19.3-8.1,27.4c-5.4,8.1-12.8,14.5-22.1,19c-9.4,4.5-19.7,6.8-31,6.8h-48.6v59.7h-18.9V150.3z M739.6,238.9
		c13.7,0,24.7-3.1,33-9.4c8.3-6.3,12.5-14.9,12.5-25.9s-4.2-19.6-12.5-25.9c-8.3-6.3-19.3-9.4-33-9.4h-45.2v70.6L739.6,238.9
		L739.6,238.9z"/>
	<path class="st2" d="M950.9,228.7c-4.4,7.6-10.6,13.8-18.5,18.6s-16.8,7.8-26.6,8.9l42.3,60.2h-21.5l-42.1-59.7h-36.8v59.7h-18.9
		V150.3h67.5c11.3,0,21.6,2.3,31,6.8c9.3,4.5,16.7,10.8,22.1,19c5.4,8.1,8.1,17.3,8.1,27.4C957.5,212.7,955.3,221.1,950.9,228.7z
		 M847.7,238.9H893c13.7,0,24.7-3.1,33-9.4c8.3-6.3,12.5-14.9,12.5-25.9s-4.2-19.6-12.5-25.9c-8.3-6.3-19.3-9.4-33-9.4h-45.2
		L847.7,238.9L847.7,238.9z"/>
	<path class="st2" d="M1013.5,307.7c-13.1-7.8-23.6-18.3-31.3-31.6c-7.7-13.2-11.6-27.5-11.6-42.8s3.9-29.5,11.6-42.7
		c7.7-13.1,18.2-23.6,31.3-31.4c13.1-7.8,27.2-11.7,42.2-11.7c15.2,0,29.2,3.9,42.2,11.7s23.3,18.3,31.1,31.4
		c7.7,13.1,11.6,27.4,11.6,42.7s-3.9,29.6-11.6,42.8s-18.1,23.7-31.1,31.6c-13,7.8-27,11.7-42.2,11.7
		C1040.7,319.4,1026.6,315.5,1013.5,307.7z M1088.5,292.5c10.1-6.3,18.1-14.7,24.1-25.2s8.9-21.8,8.9-34.1c0-12.1-3-23.4-8.9-34
		c-6-10.6-14-18.9-24.1-25.2c-10.1-6.2-21-9.3-32.8-9.3s-22.7,3.1-32.8,9.3c-10.1,6.2-18.1,14.6-24.2,25.2c-6,10.6-9.1,21.9-9.1,34
		c0,12.3,3,23.6,9.1,34.1c6,10.5,14.1,18.9,24.2,25.2c10.1,6.3,21,9.4,32.8,9.4C1067.5,302,1078.4,298.8,1088.5,292.5z"/>
	<path class="st2" d="M1169.3,311.6c-9.6-5.2-16.9-11.8-21.9-19.8l13.8-13.5c3.2,6.9,8.3,12.7,15.4,17.2c7,4.5,14.3,6.8,21.9,6.8
		c9.8,0,17.9-3.7,24.2-11.1c6.3-7.4,9.4-17,9.4-28.8v-112h18.9v112c0,11-2.2,20.8-6.7,29.5c-4.4,8.7-10.6,15.5-18.6,20.3
		s-17,7.3-27.2,7.3C1188.6,319.4,1178.8,316.8,1169.3,311.6z"/>
	<path class="st2" d="M1307.5,168.2v54.7h90.2v17.9h-90.2v57.8h100.1v17.9h-119.2V150.3h119.2v17.9H1307.5z"/>
	<path class="st2" d="M1465.3,307.7c-13.1-7.8-23.6-18.3-31.3-31.6c-7.7-13.2-11.6-27.5-11.6-42.8s3.9-29.5,11.6-42.7
		c7.7-13.1,18.2-23.6,31.3-31.4c13.1-7.8,27.2-11.7,42.2-11.7c11.3,0,22.1,2.2,32.4,6.7c10.3,4.4,19.4,10.7,27.3,18.7l-12.8,13.1
		c-6.1-6.6-13.3-11.8-21.4-15.5s-16.6-5.6-25.5-5.6c-11.8,0-22.7,3.1-32.8,9.3c-10.1,6.2-18.1,14.6-24.2,25.2
		c-6,10.6-9.1,21.9-9.1,34c0,12.3,3,23.6,9.1,34.1c6,10.5,14.1,18.9,24.2,25.2c10.1,6.3,21,9.4,32.8,9.4c8.9,0,17.4-1.9,25.5-5.6
		s15.3-8.9,21.4-15.5l12.8,13.1c-7.9,7.9-17,14.1-27.3,18.6s-21.1,6.8-32.4,6.8C1492.5,319.4,1478.4,315.5,1465.3,307.7z"/>
	<path class="st2" d="M1625.7,168.2h-55.9v-17.9h130.6v17.9h-55.9v148.3h-18.9V168.2H1625.7z"/>
	<path class="st2" d="M1893.5,239.7c-8.2,9.6-19.1,15.9-32.6,19l40.6,57.8h-34.3l-39.2-55.9h-26.6v55.9h-30V150.3h72.3
		c11.6,0,22.2,2.3,31.7,7s17,11.2,22.4,19.6c5.4,8.4,8.1,17.9,8.1,28.5C1905.8,218.7,1901.7,230.1,1893.5,239.7z M1801.3,232.8h38.7
		c10.5,0,18.9-2.5,25.3-7.4s9.6-11.6,9.6-20s-3.2-15-9.6-20c-6.4-4.9-14.8-7.4-25.3-7.4h-38.7V232.8z"/>
	<path class="st2" d="M1958.5,177.9V218h85.6v27.6h-85.6v43.3h94.8v27.6h-125V150.3h125v27.6L1958.5,177.9L1958.5,177.9z"/>
	<path class="st2" d="M2186.6,285h-79.3l-13.1,31.4h-33.6l69.4-166.1h33.6l69.4,166.1h-33.4L2186.6,285z M2176.2,260.4l-29.3-69.9
		l-29.3,69.9H2176.2z"/>
	<path class="st2" d="M2282.6,307.7c-13.4-7.8-24-18.3-31.9-31.6c-7.9-13.2-11.8-27.5-11.8-42.8s3.9-29.5,11.8-42.7
		c7.9-13.1,18.5-23.6,31.9-31.4c13.4-7.8,27.8-11.7,43.3-11.7c11.9,0,23.3,2.4,34.2,7.1c10.9,4.8,20.4,11.3,28.7,19.7l-21.5,20.1
		c-5.3-6.1-11.6-10.9-18.7-14.3c-7.2-3.4-14.7-5.1-22.6-5.1c-10,0-19.3,2.7-27.9,8c-8.6,5.3-15.5,12.5-20.7,21.4s-7.7,18.6-7.7,28.9
		c0,10.5,2.6,20.2,7.7,29.1c5.2,8.9,12.1,16.1,20.7,21.4c8.6,5.3,17.9,8,27.9,8c7.9,0,15.4-1.7,22.6-5.1c7.2-3.4,13.5-8.1,19-14.3
		l21.3,19.8c-8.1,8.5-17.5,15.2-28.4,20s-22.4,7.1-34.5,7.1C2310.4,319.4,2296,315.5,2282.6,307.7z"/>
	<path class="st2" d="M2444.9,177.9h-53.2v-27.6h136.4v27.6h-53v138.6h-30.2V177.9z"/>
	<path class="st2" d="M2578.8,307.7c-13.4-7.8-24-18.3-31.9-31.6c-7.9-13.2-11.8-27.5-11.8-42.8s3.9-29.5,11.8-42.7
		c7.9-13.1,18.5-23.6,31.9-31.4c13.4-7.8,27.8-11.7,43.3-11.7s29.9,3.9,43.3,11.7c13.4,7.8,24.1,18.3,32,31.4
		c8,13.1,12,27.4,12,42.7s-4,29.6-12,42.8s-18.7,23.7-32,31.6c-13.4,7.8-27.8,11.7-43.3,11.7
		C2606.6,319.4,2592.2,315.5,2578.8,307.7z M2650.2,283.8c8.7-5.3,15.6-12.5,20.7-21.4c5.1-8.9,7.6-18.7,7.6-29.1
		c0-10.3-2.5-20-7.6-28.9s-12-16.1-20.7-21.4c-8.7-5.3-18.1-8-28.1-8s-19.3,2.7-27.9,8c-8.6,5.3-15.5,12.5-20.7,21.4
		s-7.7,18.6-7.7,28.9c0,10.5,2.6,20.2,7.7,29.1c5.2,8.9,12.1,16.1,20.7,21.4c8.6,5.3,17.9,8,27.9,8
		C2632.1,291.8,2641.5,289.2,2650.2,283.8z"/>
	<path class="st2" d="M2854.3,239.7c-8.2,9.6-19.1,15.9-32.6,19l40.6,57.8H2828l-39.2-55.9h-26.6v55.9h-30V150.3h72.3
		c11.6,0,22.2,2.3,31.7,7s17,11.2,22.4,19.6c5.4,8.4,8.1,17.9,8.1,28.5C2866.6,218.7,2862.5,230.1,2854.3,239.7z M2762.2,232.8h38.7
		c10.5,0,18.9-2.5,25.3-7.4c6.4-4.9,9.6-11.6,9.6-20s-3.2-15-9.6-20c-6.4-4.9-14.8-7.4-25.3-7.4h-38.7V232.8z"/>
</g>
</svg>
